<?xml version="1.0" encoding="UTF-8"?>
<svg xmlns="http://www.w3.org/2000/svg" xmlns:xlink="http://www.w3.org/1999/xlink" width="10px" height="11px" viewBox="0 0 10 11" version="1.1">
<g id="surface1">
<path style=" stroke:none;fill-rule:nonzero;fill:rgb(31.764706%,38.431373%,47.058824%);fill-opacity:1;" d="M 4.136719 1.945312 L 4.613281 1.53125 C 4.820312 1.347656 5.152344 1.347656 5.351562 1.53125 L 9.570312 5.179688 C 9.769531 5.355469 9.769531 5.644531 9.570312 5.816406 L 5.351562 9.46875 C 5.152344 9.652344 4.816406 9.652344 4.613281 9.46875 L 4.136719 9.054688 C 3.929688 8.878906 3.933594 8.582031 4.140625 8.410156 L 6.757812 6.25 L 0.519531 6.25 C 0.234375 6.25 0 6.046875 0 5.800781 L 0 5.199219 C 0 4.953125 0.234375 4.75 0.519531 4.75 L 6.757812 4.75 L 4.140625 2.589844 C 3.929688 2.417969 3.921875 2.121094 4.136719 1.945312 Z M 4.136719 1.945312 "/>
</g>
</svg>
